# xmcd
#
# Track frame offsets:
#	150
#	12798
#	26999
#	40139
#	52880
#	62038
#	66610
#	82536
#	104978
#	117699
#	129856
#	142316
#	157141
#	171845
#	187084
#	194626
#	205208
#	221629
#	233934
#	245134
#	260419
#	275997
#	296435
#	312895
#	326293
#	343229
#
# Disc length: 4821 seconds
#
# Revision: 0
# Processed by: cddbd v1.4PL0 Copyright (c) Steve Scherf et al.
# Submitted via: audiograbber 1.82.01
#
DISCID=a912d31a
DTITLE=[Gagarin] - ElectroFunky Beat
DYEAR=2003
DGENRE=
TTITLE0=Junkie XL - Synasthesia
TTITLE1=Bomfunk MC's - Uprocking Beats
TTITLE2=Bomfunk MC's - Super Electric
TTITLE3=Pressure Point - Bass Odyssey
TTITLE4=Frystyle Project - Electric Reality
TTITLE5=Freak Style - Freestyle In Da House
TTITLE6=Flying Steps - Breakin' It Down
TTITLE7=Bomfunk MC's - Freestyler
TTITLE8=The Crystal Method - The Winner
TTITLE9=Mr. Bass feat. Streetstyler - Rock It
TTITLE10=Navigator - Get Down Massive
TTITLE11=Valerie M - Calling
TTITLE12=Bomfunk MC's - Put Ya Hands Up
TTITLE13=Flying Steps - We Are Electric
TTITLE14=Frystyle Crew - Pump Da Beat
TTITLE15=Flying Steps - B - Unitor I
TTITLE16=Bomfunk MC's - Freak It On
TTITLE17=Lil Suzy - Take Me In Your Arms
TTITLE18=Flying Steps - In Da Arena
TTITLE19=Junkie XL - Dance USA
TTITLE20=Bomfunk MC's - Kingstep
TTITLE21=Modern Bass - Fantasy Girl
TTITLE22=Bomfunk MC's - Live Your Life (feat. Max's)
TTITLE23=Bomfunk MC's - Rockin' With The Best
TTITLE24=The Cardinal - Broadcast Channels
TTITLE25=Bomfunk MC's - Back To Back (feat. Z-MC)
EXTD=
EXTT0=
EXTT1=
EXTT2=
EXTT3=
EXTT4=
EXTT5=
EXTT6=
EXTT7=
EXTT8=
EXTT9=
EXTT10=
EXTT11=
EXTT12=
EXTT13=
EXTT14=
EXTT15=
EXTT16=
EXTT17=
EXTT18=
EXTT19=
EXTT20=
EXTT21=
EXTT22=
EXTT23=
EXTT24=
EXTT25=
PLAYORDER=
